<svg id="visual" viewBox="0 0 900 600" width="900" height="600" xmlns="http://www.w3.org/2000/svg" xmlns:xlink="http://www.w3.org/1999/xlink" version="1.1"><path d="M0 199L25 190C50 181 100 163 150 170C200 177 250 209 300 204C350 199 400 157 450 138C500 119 550 123 600 140C650 157 700 187 750 190C800 193 850 169 875 157L900 145L900 0L875 0C850 0 800 0 750 0C700 0 650 0 600 0C550 0 500 0 450 0C400 0 350 0 300 0C250 0 200 0 150 0C100 0 50 0 25 0L0 0Z" fill="#5c6f73"></path><path d="M0 307L25 301C50 295 100 283 150 279C200 275 250 279 300 261C350 243 400 203 450 197C500 191 550 219 600 245C650 271 700 295 750 290C800 285 850 251 875 234L900 217L900 143L875 155C850 167 800 191 750 188C700 185 650 155 600 138C550 121 500 117 450 136C400 155 350 197 300 202C250 207 200 175 150 168C100 161 50 179 25 188L0 197Z" fill="#415053"></path><path d="M0 391L25 380C50 369 100 347 150 346C200 345 250 365 300 346C350 327 400 269 450 259C500 249 550 287 600 313C650 339 700 353 750 341C800 329 850 291 875 272L900 253L900 215L875 232C850 249 800 283 750 288C700 293 650 269 600 243C550 217 500 189 450 195C400 201 350 241 300 259C250 277 200 273 150 277C100 281 50 293 25 299L0 305Z" fill="#313e40"></path><path d="M0 505L25 494C50 483 100 461 150 452C200 443 250 447 300 438C350 429 400 407 450 395C500 383 550 381 600 404C650 427 700 475 750 466C800 457 850 391 875 358L900 325L900 251L875 270C850 289 800 327 750 339C700 351 650 337 600 311C550 285 500 247 450 257C400 267 350 325 300 344C250 363 200 343 150 344C100 345 50 367 25 378L0 389Z" fill="#415053"></path><path d="M0 601L25 601C50 601 100 601 150 601C200 601 250 601 300 601C350 601 400 601 450 601C500 601 550 601 600 601C650 601 700 601 750 601C800 601 850 601 875 601L900 601L900 323L875 356C850 389 800 455 750 464C700 473 650 425 600 402C550 379 500 381 450 393C400 405 350 427 300 436C250 445 200 441 150 450C100 459 50 481 25 492L0 503Z" fill="#5c6f73"></path></svg>