<svg id="visual" viewBox="0 0 900 450" width="900" height="450" xmlns="http://www.w3.org/2000/svg" xmlns:xlink="http://www.w3.org/1999/xlink" version="1.1"><path d="M0 114L129 158L257 175L386 168L514 147L643 155L771 166L900 135L900 0L771 0L643 0L514 0L386 0L257 0L129 0L0 0Z" fill="#313e40"></path><path d="M0 147L129 125L257 131L386 134L514 90L643 89L771 124L900 148L900 0L771 0L643 0L514 0L386 0L257 0L129 0L0 0Z" fill="#2d3b41"></path><path d="M0 108L129 98L257 102L386 65L514 108L643 88L771 85L900 109L900 0L771 0L643 0L514 0L386 0L257 0L129 0L0 0Z" fill="#2b3842"></path><path d="M0 74L129 41L257 54L386 75L514 63L643 65L771 85L900 74L900 0L771 0L643 0L514 0L386 0L257 0L129 0L0 0Z" fill="#2c3442"></path><path d="M0 35L129 27L257 21L386 19L514 28L643 36L771 23L900 41L900 0L771 0L643 0L514 0L386 0L257 0L129 0L0 0Z" fill="#302f40"></path></svg>